<svg width="161" height="160" viewBox="0 0 161 160" fill="none" xmlns="http://www.w3.org/2000/svg">
<circle cx="80.4847" cy="80" r="80" fill="#F1511B"/>
<path d="M53 64.541V76.541C53 77.3367 53.3161 78.0997 53.8787 78.6623C54.4413 79.2249 55.2044 79.541 56 79.541H65M65 64.541V94.541M95 64.541V76.541C95 77.3367 95.3161 78.0997 95.8787 78.6623C96.4413 79.2249 97.2044 79.541 98 79.541H107M107 64.541V94.541M74 67.541V91.541C74 92.3367 74.3161 93.0997 74.8787 93.6623C75.4413 94.2249 76.2044 94.541 77 94.541H83C83.7956 94.541 84.5587 94.2249 85.1213 93.6623C85.6839 93.0997 86 92.3367 86 91.541V67.541C86 66.7454 85.6839 65.9823 85.1213 65.4197C84.5587 64.8571 83.7956 64.541 83 64.541H77C76.2044 64.541 75.4413 64.8571 74.8787 65.4197C74.3161 65.9823 74 66.7454 74 67.541Z" stroke="white" stroke-width="6" stroke-linecap="round" stroke-linejoin="round"/>
</svg>
